HIERARCHY
ROOT Hips
{
	OFFSET 0.000000 0.000000 0.000000
	CHANNELS 6 Xposition Yposition Zposition Zrotation Yrotation Xrotation 
	JOINT LeftUpLeg_virtual
	{
		OFFSET 0.000000 0.000000 0.000000
		CHANNELS 3 Zrotation Yrotation Xrotation
		JOINT LeftUpLeg
		{
			OFFSET 8.479694 -4.795517 -0.379053
			CHANNELS 3 Zrotation Yrotation Xrotation
			JOINT LeftLeg
			{
				OFFSET 0.485052 -32.551468 0.112863
				CHANNELS 3 Zrotation Yrotation Xrotation
				JOINT LeftFoot
				{
					OFFSET 0.438033 -32.635670 -3.012641
					CHANNELS 3 Zrotation Yrotation Xrotation
					JOINT LeftToeBase
					{
						OFFSET 0.970169 -13.225353 11.864223
						CHANNELS 3 Zrotation Yrotation Xrotation
						End Site
						{
							OFFSET 0.000000 0.000000 0.000000
						}
					}
				}
			}
		}
	}
	JOINT RightUpLeg_virtual
	{
		OFFSET 0.000000 0.000000 0.000000
		CHANNELS 3 Zrotation Yrotation Xrotation
		JOINT RightUpLeg
		{
			OFFSET -8.479694 -4.795517 -0.379053
			CHANNELS 3 Zrotation Yrotation Xrotation
			JOINT RightLeg
			{
				OFFSET -0.484100 -32.551483 0.112903
				CHANNELS 3 Zrotation Yrotation Xrotation
				JOINT RightFoot
				{
					OFFSET -0.438985 -32.635651 -3.012681
					CHANNELS 3 Zrotation Yrotation Xrotation
					JOINT RightToeBase
					{
						OFFSET -0.970169 -13.225354 11.864223
						CHANNELS 3 Zrotation Yrotation Xrotation
						End Site
						{
							OFFSET 0.000000 0.000000 0.000000
						}
					}
				}
			}
		}
	}
	JOINT Spine_virtual
	{
		OFFSET 0.000000 0.000000 0.000000
		CHANNELS 3 Zrotation Yrotation Xrotation
		JOINT Spine
		{
			OFFSET 0.000000 7.722015 1.166203
			CHANNELS 3 Zrotation Yrotation Xrotation
			JOINT Spine1
			{
				OFFSET 0.000000 12.024086 0.248766
				CHANNELS 3 Zrotation Yrotation Xrotation
				JOINT Spine2
				{
					OFFSET -0.000000 11.503036 -0.491240
					CHANNELS 3 Zrotation Yrotation Xrotation
					JOINT Neck_virtual
					{
						OFFSET 0.000000 0.000000 0.000000
						CHANNELS 3 Zrotation Yrotation Xrotation
						JOINT Neck
						{
							OFFSET 0.000000 18.430687 -3.123054
							CHANNELS 3 Zrotation Yrotation Xrotation
							JOINT Head
							{
								OFFSET -0.000000 9.051071 1.034021
								CHANNELS 3 Zrotation Yrotation Xrotation
								End Site
								{
									OFFSET 0.000000 0.000000 0.000000
								}
							}
						}
					}
					JOINT LeftShoulder_virtual
					{
						OFFSET 0.000000 0.000000 0.000000
						CHANNELS 3 Zrotation Yrotation Xrotation
						JOINT LeftShoulder
						{
							OFFSET 6.197824 13.665230 -4.064723
							CHANNELS 3 Zrotation Yrotation Xrotation
							JOINT LeftArm
							{
								OFFSET 7.778132 -0.187073 -1.709282
								CHANNELS 3 Zrotation Yrotation Xrotation
								JOINT LeftForeArm
								{
									OFFSET 21.954697 0.000000 -2.041093
									CHANNELS 3 Zrotation Yrotation Xrotation
									JOINT LeftHand
									{
										OFFSET 22.992908 0.000000 -0.870901
										CHANNELS 3 Zrotation Yrotation Xrotation
										End Site
										{
											OFFSET 0.000000 0.000000 0.000000
										}
									}
								}
							}
						}
					}
					JOINT RightShoulder_virtual
					{
						OFFSET 0.000000 0.000000 0.000000
						CHANNELS 3 Zrotation Yrotation Xrotation
						JOINT RightShoulder
						{
							OFFSET -6.197824 13.665230 -4.064723
							CHANNELS 3 Zrotation Yrotation Xrotation
							JOINT RightArm
							{
								OFFSET -7.778132 -0.187073 -1.709282
								CHANNELS 3 Zrotation Yrotation Xrotation
								JOINT RightForeArm
								{
									OFFSET -21.954697 0.000000 -2.041093
									CHANNELS 3 Zrotation Yrotation Xrotation
									JOINT RightHand
									{
										OFFSET -22.992908 0.000000 -0.870901
										CHANNELS 3 Zrotation Yrotation Xrotation
										End Site
										{
											OFFSET 0.000000 0.000000 0.000000
										}
									}
								}
							}
						}
					}
				}
			}
		}
	}
}
MOTION
Frames: 9
Frame Time: 0.033333
-56.929417 81.543503 -12.226152 -179.919340 13.309429 -179.943533 -4.202823 0.157257 9.329109 2.492467 3.788379 -25.166925 3.658964 -0.135872 31.308757 -3.287796 -9.484895 -10.241184 0.000000 0.000000 0.000000 -1.123625 -0.209513 9.611052 0.881673 0.654347 -23.826261 -1.913622 3.617675 30.421919 8.191795 3.354024 -5.098848 0.000000 0.000000 0.000000 0.431804 2.982444 -4.073807 1.937454 -1.509099 -5.988287 -1.168487 -2.329704 11.475015 0.005933 -0.017746 0.031433 -1.533879 -0.935095 11.800668 0.109920 -1.956931 -5.275325 0.000000 0.000000 0.000000 0.410145 -0.516817 9.351358 -5.070899 -0.004670 3.798832 -65.500360 -4.521341 14.763517 4.917519 -38.855317 9.267621 0.000000 0.000000 0.000000 -4.130327 1.236520 8.483201 27.654125 1.460609 9.687402 56.243650 6.647307 4.378932 -3.403110 24.174819 -3.215311 0.000000 0.000000 0.000000 
-57.122395 81.556396 -12.081970 -179.974283 13.184380 179.901541 -4.281762 0.197237 9.308904 2.289046 3.762228 -25.026716 3.423987 -0.356149 30.875638 -3.751302 -10.086936 -10.251622 0.000000 0.000000 0.000000 -1.265672 -0.295334 9.608191 0.894957 0.580057 -23.696892 -1.980265 3.411919 30.339417 8.003809 3.037016 -4.722508 0.000000 0.000000 0.000000 0.433596 2.867840 -4.031587 1.868724 -1.540248 -5.830743 -1.201947 -2.334335 11.531592 0.008816 -0.069674 0.011242 -1.486342 -0.881835 11.780120 0.128223 -1.976939 -5.361012 0.000000 0.000000 0.000000 0.419499 -0.472144 9.367980 -5.092359 -0.097976 3.719538 -65.498338 -4.907823 14.695120 4.765876 -39.232234 9.345680 0.000000 0.000000 0.000000 -4.092253 1.178549 8.477497 27.483986 1.577075 9.712707 56.204575 6.680936 4.283372 -3.422852 24.187076 -3.081740 0.000000 0.000000 0.000000 
-57.360077 81.551125 -11.923470 -179.908535 13.220320 179.905981 -4.256267 0.308959 9.141714 2.133344 3.727234 -25.051952 3.507570 -0.342410 30.922083 -3.741334 -10.064806 -10.256867 0.000000 0.000000 0.000000 -1.150186 -0.411448 9.480823 0.662426 0.985032 -23.586419 -2.021796 3.427593 30.148646 8.159258 2.945081 -4.723057 0.000000 0.000000 0.000000 0.538915 2.857207 -4.021173 1.817777 -1.613343 -5.705196 -1.221681 -2.328289 11.560438 0.026274 -0.045166 -0.001461 -1.543344 -1.054087 11.770912 0.127817 -1.938205 -5.513991 0.000000 0.000000 0.000000 0.388473 -0.493928 9.320670 -5.008264 -0.104744 3.708627 -65.532018 -5.529674 14.748241 4.917401 -39.814597 9.244892 0.000000 0.000000 0.000000 -4.127809 1.147084 8.525991 27.327899 1.696925 9.666574 56.140668 6.708679 4.348347 -3.454844 24.373279 -3.186021 0.000000 0.000000 0.000000 
-57.628456 81.526634 -11.824158 -179.872171 13.185345 179.985511 -4.221142 0.298107 8.953602 1.928220 3.640741 -25.210843 3.637321 -0.307207 31.144139 -3.729609 -9.997087 -10.260295 0.000000 0.000000 0.000000 -1.056085 -0.598067 9.362007 0.344032 1.412676 -23.551804 -2.044623 3.608280 30.011411 8.290126 2.762398 -4.863106 0.000000 0.000000 0.000000 0.591478 2.852175 -4.021640 1.731222 -1.616115 -5.608040 -1.164537 -2.288804 11.567649 0.004403 -0.091318 -0.029573 -1.535605 -1.017677 11.845885 0.204954 -1.979672 -5.700028 0.000000 0.000000 0.000000 0.384051 -0.584484 9.405602 -4.986066 -0.142539 3.668116 -65.514717 -6.188047 14.665384 4.882014 -40.565088 9.038330 0.000000 0.000000 0.000000 -4.154760 1.250636 8.559651 27.251686 1.670709 9.600269 56.107521 6.633802 4.608156 -3.585373 24.710967 -3.313430 0.000000 0.000000 0.000000 
-57.923893 81.489647 -11.819535 -179.886241 13.475201 179.948983 -4.216440 0.340823 8.936390 1.602944 3.633531 -25.322185 3.861464 -0.163707 31.463120 -3.704370 -9.826168 -10.252368 0.000000 0.000000 0.000000 -0.993335 -0.687199 9.319809 -0.053617 1.919792 -23.583757 -2.057302 3.702747 30.040371 8.575018 2.730196 -4.941610 0.000000 0.000000 0.000000 0.609613 2.810539 -3.966847 1.613285 -1.709448 -5.443027 -1.172929 -2.279526 11.496810 -0.033199 -0.036591 0.023502 -1.520259 -0.765202 11.824796 0.273442 -2.065946 -5.930443 0.000000 0.000000 0.000000 0.389753 -0.424150 9.375869 -4.956533 -0.112139 3.644247 -65.550999 -6.779013 14.646285 4.868267 -41.396352 8.956429 0.000000 0.000000 0.000000 -4.113442 1.252425 8.619057 27.109222 1.967588 9.523157 55.959439 6.521962 4.704265 -3.703160 25.013205 -3.390104 0.000000 0.000000 0.000000 
-58.264351 81.432915 -11.914908 -179.860655 13.839375 179.977930 -4.211468 0.135592 8.888380 1.181824 3.775862 -25.510738 4.137714 -0.076239 31.859605 -3.667559 -9.559306 -10.312376 0.000000 0.000000 0.000000 -0.897353 -0.615336 9.262542 -0.453731 1.955505 -23.726433 -2.033030 3.828863 30.340001 8.955365 2.778021 -4.992794 0.000000 0.000000 0.000000 0.620277 2.730446 -3.996079 1.509513 -1.653078 -5.352692 -1.132647 -2.213952 11.519928 0.009011 -0.046016 0.076679 -1.578182 -0.889573 11.780992 0.299946 -2.118554 -6.182245 0.000000 0.000000 0.000000 0.303377 -0.394906 9.383067 -4.983035 -0.185493 3.600865 -65.667652 -7.163373 14.674142 4.813388 -42.118389 8.987956 0.000000 0.000000 0.000000 -4.146619 1.319973 8.582467 27.011984 2.096638 9.343120 55.850935 6.337824 4.711446 -3.791810 25.234971 -3.441821 0.000000 0.000000 0.000000 
-58.660053 81.337692 -12.024465 -179.867609 14.232509 -179.889889 -4.261553 -0.036646 8.768702 0.716269 3.829264 -25.748732 4.459787 0.045009 32.479428 -3.603966 -9.176743 -10.639951 0.000000 0.000000 0.000000 -0.841828 -0.805559 9.129068 -0.967223 2.045157 -24.179399 -1.925158 4.056874 30.965626 9.413204 2.967057 -5.055664 0.000000 0.000000 0.000000 0.612108 2.612894 -4.205941 1.399217 -1.635920 -5.227071 -1.120322 -2.162622 11.532636 -0.013708 -0.030948 0.016585 -1.527532 -0.736683 11.844936 0.396897 -2.300089 -6.464359 0.000000 0.000000 0.000000 0.335081 -0.293851 9.514751 -5.045109 -0.386722 3.652262 -65.816154 -7.429903 14.730990 4.879228 -42.746305 8.920639 0.000000 0.000000 0.000000 -4.159610 1.344100 8.677984 26.831061 2.314658 9.217548 55.680085 6.109839 4.679398 -3.981764 25.457167 -3.614106 0.000000 0.000000 0.000000 
-59.063362 81.206596 -12.122188 -179.881583 14.591787 -179.921499 -4.268774 0.023149 8.611812 0.282550 3.541038 -25.811063 4.803774 0.175005 33.117753 -3.604176 -8.736509 -11.060688 0.000000 0.000000 0.000000 -0.785801 -0.813026 8.984187 -1.408736 1.687128 -24.648918 -1.784511 3.992519 31.952612 9.963012 3.323673 -5.073155 0.000000 0.000000 0.000000 0.580926 2.573241 -4.406391 1.299929 -1.618769 -4.942224 -1.129190 -2.121187 11.553926 -0.024708 -0.043166 -0.030368 -1.503031 -0.763057 11.922191 0.413047 -2.383362 -6.717882 0.000000 0.000000 0.000000 0.374498 -0.328973 9.539951 -5.182887 -0.365173 3.621144 -65.952027 -7.385711 14.641590 4.737471 -43.189636 9.031609 0.000000 0.000000 0.000000 -4.094704 1.512603 8.740894 26.630914 2.493545 9.055916 55.561690 5.939965 4.771291 -4.180157 25.644714 -3.668995 0.000000 0.000000 0.000000 
-59.439171 81.048622 -12.173773 -179.903167 14.846171 179.989828 -4.260171 0.210361 8.408407 -0.166407 3.103313 -25.787494 5.148190 0.267271 33.685947 -3.750103 -8.308262 -11.578176 0.000000 0.000000 0.000000 -0.610173 -0.620165 8.860147 -1.854698 0.725414 -25.334524 -1.625101 4.149389 33.417305 10.433178 3.720889 -5.125960 0.000000 0.000000 0.000000 0.540168 2.782192 -4.682450 1.215554 -1.718067 -4.517176 -1.153290 -2.126199 11.569184 -0.050687 0.045772 0.012627 -1.447864 -0.619014 11.999572 0.480103 -2.570827 -6.928011 0.000000 0.000000 0.000000 0.381275 -0.198655 9.659347 -5.280235 -0.770463 3.607711 -66.009632 -7.324109 14.403831 4.635356 -43.324324 9.219874 0.000000 0.000000 0.000000 -4.055679 1.442063 8.853953 26.363168 2.804088 8.909662 55.482030 5.914957 4.917662 -4.326713 25.933820 -3.716682 0.000000 0.000000 0.000000 
